# xmcd
#
# Track frame offsets: 
#        150
#        29303
#        45870
#        98150
#        140570
#        175395
#        189883
#        209759
#        331377
#
# Disc length: 4740 seconds
#
# Revision: 1
# Processed by: cddbd v1.4PL0 Copyright (c) Steve Scherf et al.
# Submitted via: ExactAudioCopy v0.95a2
#
DISCID=7a128209
DTITLE=Jimi Hendrix - 51st Anniversary (Story Of Life ) [CD5]
DYEAR=1900
DGENRE=Blues
TTITLE0=Midnight lightning 2
TTITLE1=Lower Alcatraz
TTITLE2=There goes ezy rider/7 dollars in my pocket
TTITLE3=Heavy rider jam
TTITLE4=Easy blues
TTITLE5=Gypsy boy
TTITLE6=Peace in Mississipi
TTITLE7=Bluesiana jam
TTITLE8=BB King slow instrumental jam
EXTD=ID3G: 0
EXTT0=
EXTT1=
EXTT2=
EXTT3=
EXTT4=
EXTT5=
EXTT6=
EXTT7=
EXTT8=
PLAYORDER=
